{
  "asset": {
    "version": "2.0",
    "generator": "THREE.GLTFExporter r180"
  },
  "scenes": [
    {
      "name": "Scene",
      "nodes": [
        0
      ]
    }
  ],
  "scene": 0,
  "nodes": [
    {
      "name": "emerald_ring.glb",
      "children": [
        1
      ]
    },
    {
      "name": "emerald_ringglb",
      "extras": {
        "name": "emerald_ring.glb"
      },
      "children": [
        2,
        5
      ]
    },
    {
      "name": "ringobj",
      "extras": {
        "name": "ring.obj"
      },
      "children": [
        3,
        4
      ]
    },
    {
      "name": "zuanshi_jeizhi",
      "extras": {
        "povray": {
          "material": "M_glass_green_water"
        }
      },
      "mesh": 0
    },
    {
      "name": "jeizhi_jeizhi",
      "extras": {
        "povray": {
          "material": "M_bright_gold_metal"
        }
      },
      "mesh": 1
    },
    {
      "matrix": [
        1,
        0,
        0,
        0,
        0,
        1,
        0,
        0,
        0,
        0,
        1,
        0,
        5,
        6.782267455459348,
        -17.98427325354389,
        1
      ],
      "name": "DirectionalLight",
      "extras": {
        "name": "DirectionalLight"
      },
      "children": [
        6,
        7
      ],
      "extensions": {
        "KHR_lights_punctual": {
          "light": 0
        }
      }
    },
    {
      "matrix": [
        1,
        0,
        0,
        0,
        0,
        1,
        0,
        0,
        0,
        0,
        1,
        0,
        0,
        0,
        -1,
        1
      ]
    },
    {
      "matrix": [
        1,
        0,
        0,
        0,
        0,
        1,
        0,
        0,
        0,
        0,
        1,
        0,
        0,
        0,
        -1,
        1
      ]
    }
  ],
  "bufferViews": [
    {
      "buffer": 0,
      "byteOffset": 0,
      "byteLength": 10872,
      "target": 34962,
      "byteStride": 12
    },
    {
      "buffer": 0,
      "byteOffset": 10872,
      "byteLength": 10872,
      "target": 34962,
      "byteStride": 12
    },
    {
      "buffer": 0,
      "byteOffset": 21744,
      "byteLength": 7248,
      "target": 34962,
      "byteStride": 8
    },
    {
      "buffer": 0,
      "byteOffset": 28992,
      "byteLength": 302976,
      "target": 34962,
      "byteStride": 12
    },
    {
      "buffer": 0,
      "byteOffset": 331968,
      "byteLength": 302976,
      "target": 34962,
      "byteStride": 12
    }
  ],
  "buffers": [
    {
      "byteLength": 634944,
      "uri": "data:application/octet-stream;base64,"
    }
  ],
  "accessors": [
    {
      "bufferView": 0,
      "componentType": 5126,
      "count": 906,
      "max": [
        1.8001999855041504,
        3.90120005607605,
        -2.0618999004364014
      ],
      "min": [
        -1.8001999855041504,
        0.305400013923645,
        -4.933700084686279
      ],
      "type": "VEC3"
    },
    {
      "bufferView": 1,
      "componentType": 5126,
      "count": 906,
      "max": [
        0.9872819781303406,
        0.9782009720802307,
        0.9529910087585449
      ],
      "min": [
        -0.9870700240135193,
        -0.9881939888000488,
        -0.9964990019798279
      ],
      "type": "VEC3"
    },
    {
      "bufferView": 2,
      "componentType": 5126,
      "count": 906,
      "max": [
        1,
        1
      ],
      "min": [
        0,
        0
      ],
      "type": "VEC2"
    },
    {
      "bufferView": 3,
      "componentType": 5126,
      "count": 25248,
      "max": [
        6.79010009765625,
        4.305699825286865,
        11.323100090026855
      ],
      "min": [
        -6.79010009765625,
        -0.037300001829862595,
        -4.803899765014648
      ],
      "type": "VEC3"
    },
    {
      "bufferView": 4,
      "componentType": 5126,
      "count": 25248,
      "max": [
        0.9999970197677612,
        0.9999780058860779,
        0.9997720122337341
      ],
      "min": [
        -0.9999970197677612,
        -0.9997730255126953,
        -0.999983012676239
      ],
      "type": "VEC3"
    }
  ],
  "materials": [
    {
      "pbrMetallicRoughness": {
        "baseColorFactor": [
          0.024157632443547246,
          0.85499260812105,
          0.07036009568874305,
          0.86
        ],
        "metallicFactor": 0,
        "roughnessFactor": 1
      },
      "alphaMode": "BLEND",
      "doubleSided": true,
      "extensions": {
        "KHR_materials_transmission": {
          "transmissionFactor": 0.58
        },
        "KHR_materials_volume": {
          "thicknessFactor": 0,
          "attenuationColor": [
            1,
            1,
            1
          ]
        },
        "KHR_materials_ior": {
          "ior": 2.3333333333333335
        }
      }
    },
    {
      "pbrMetallicRoughness": {
        "baseColorFactor": [
          0.822785754392438,
          0.4452011945063733,
          0.010329823026364548,
          1
        ],
        "metallicFactor": 1,
        "roughnessFactor": 0.42
      },
      "extensions": {
        "KHR_materials_ior": {
          "ior": 2.333
        },
        "KHR_materials_emissive_strength": {
          "emissiveStrength": 0
        }
      }
    }
  ],
  "meshes": [
    {
      "primitives": [
        {
          "mode": 4,
          "attributes": {
            "POSITION": 0,
            "NORMAL": 1,
            "TEXCOORD_0": 2
          },
          "material": 0
        }
      ]
    },
    {
      "primitives": [
        {
          "mode": 4,
          "attributes": {
            "POSITION": 3,
            "NORMAL": 4
          },
          "material": 1
        }
      ]
    }
  ],
  "extensions": {
    "KHR_lights_punctual": {
      "lights": [
        {
          "name": "DirectionalLight",
          "color": [
            1,
            1,
            1
          ],
          "intensity": 1,
          "type": "directional"
        }
      ]
    }
  },
  "extensionsUsed": [
    "KHR_materials_transmission",
    "KHR_materials_volume",
    "KHR_materials_ior",
    "KHR_materials_emissive_strength",
    "KHR_lights_punctual"
  ]
}